<svg width="30" height="36" viewBox="0 0 30 36" fill="none" xmlns="http://www.w3.org/2000/svg">
<path d="M0 25.5V23.5312C0 22.6354 0.458333 21.9062 1.375 21.3438C2.29167 20.7812 3.5 20.5 5 20.5C5.27083 20.5 5.53125 20.5052 5.78125 20.5156C6.03125 20.526 6.27083 20.5521 6.5 20.5938C6.20833 21.0312 5.98958 21.4896 5.84375 21.9688C5.69792 22.4479 5.625 22.9479 5.625 23.4688V25.5H0ZM7.5 25.5V23.4688C7.5 22.8021 7.68229 22.1927 8.04688 21.6406C8.41146 21.0885 8.92708 20.6042 9.59375 20.1875C10.2604 19.7708 11.0573 19.4583 11.9844 19.25C12.9115 19.0417 13.9167 18.9375 15 18.9375C16.1042 18.9375 17.1198 19.0417 18.0469 19.25C18.974 19.4583 19.7708 19.7708 20.4375 20.1875C21.1042 20.6042 21.6146 21.0885 21.9688 21.6406C22.3229 22.1927 22.5 22.8021 22.5 23.4688V25.5H7.5ZM24.375 25.5V23.4688C24.375 22.9271 24.3073 22.4167 24.1719 21.9375C24.0365 21.4583 23.8333 21.0104 23.5625 20.5938C23.7917 20.5521 24.026 20.526 24.2656 20.5156C24.5052 20.5052 24.75 20.5 25 20.5C26.5 20.5 27.7083 20.776 28.625 21.3281C29.5417 21.8802 30 22.6146 30 23.5312V25.5H24.375ZM10.1562 23H19.875C19.6667 22.5833 19.0885 22.2188 18.1406 21.9062C17.1927 21.5938 16.1458 21.4375 15 21.4375C13.8542 21.4375 12.8073 21.5938 11.8594 21.9062C10.9115 22.2188 10.3438 22.5833 10.1562 23ZM5 19.25C4.3125 19.25 3.72396 19.0052 3.23438 18.5156C2.74479 18.026 2.5 17.4375 2.5 16.75C2.5 16.0417 2.74479 15.4479 3.23438 14.9688C3.72396 14.4896 4.3125 14.25 5 14.25C5.70833 14.25 6.30208 14.4896 6.78125 14.9688C7.26042 15.4479 7.5 16.0417 7.5 16.75C7.5 17.4375 7.26042 18.026 6.78125 18.5156C6.30208 19.0052 5.70833 19.25 5 19.25ZM25 19.25C24.3125 19.25 23.724 19.0052 23.2344 18.5156C22.7448 18.026 22.5 17.4375 22.5 16.75C22.5 16.0417 22.7448 15.4479 23.2344 14.9688C23.724 14.4896 24.3125 14.25 25 14.25C25.7083 14.25 26.3021 14.4896 26.7812 14.9688C27.2604 15.4479 27.5 16.0417 27.5 16.75C27.5 17.4375 27.2604 18.026 26.7812 18.5156C26.3021 19.0052 25.7083 19.25 25 19.25ZM15 18C13.9583 18 13.0729 17.6354 12.3438 16.9062C11.6146 16.1771 11.25 15.2917 11.25 14.25C11.25 13.1875 11.6146 12.2969 12.3438 11.5781C13.0729 10.8594 13.9583 10.5 15 10.5C16.0625 10.5 16.9531 10.8594 17.6719 11.5781C18.3906 12.2969 18.75 13.1875 18.75 14.25C18.75 15.2917 18.3906 16.1771 17.6719 16.9062C16.9531 17.6354 16.0625 18 15 18ZM15 15.5C15.3542 15.5 15.651 15.3802 15.8906 15.1406C16.1302 14.901 16.25 14.6042 16.25 14.25C16.25 13.8958 16.1302 13.599 15.8906 13.3594C15.651 13.1198 15.3542 13 15 13C14.6458 13 14.349 13.1198 14.1094 13.3594C13.8698 13.599 13.75 13.8958 13.75 14.25C13.75 14.6042 13.8698 14.901 14.1094 15.1406C14.349 15.3802 14.6458 15.5 15 15.5Z" fill="#607AFB"/>
</svg>
