<svg width="30" height="36" viewBox="0 0 30 36" fill="none" xmlns="http://www.w3.org/2000/svg">
<path d="M26.2813 16.8125V26.75C26.2813 27.4375 26.0365 28.026 25.5469 28.5156C25.0573 29.0052 24.4688 29.25 23.7813 29.25H6.28125C5.59375 29.25 5.00521 29.0052 4.51563 28.5156C4.02604 28.026 3.78125 27.4375 3.78125 26.75V16.8125C3.30209 16.375 2.9323 15.8125 2.67188 15.125C2.41146 14.4375 2.40625 13.6875 2.65625 12.875L3.96875 8.625C4.13542 8.08333 4.43229 7.63542 4.85938 7.28125C5.28646 6.92708 5.78125 6.75 6.34375 6.75H23.7188C24.2813 6.75 24.7708 6.92188 25.1875 7.26562C25.6042 7.60938 25.9063 8.0625 26.0938 8.625L27.4063 12.875C27.6563 13.6875 27.651 14.4271 27.3906 15.0938C27.1302 15.7604 26.7604 16.3333 26.2813 16.8125ZM17.7813 15.5C18.3438 15.5 18.7708 15.3073 19.0625 14.9219C19.3542 14.5365 19.4688 14.1042 19.4063 13.625L18.7188 9.25H16.2813V13.875C16.2813 14.3125 16.4271 14.6927 16.7188 15.0156C17.0104 15.3385 17.3646 15.5 17.7813 15.5ZM12.1563 15.5C12.6354 15.5 13.026 15.3385 13.3281 15.0156C13.6302 14.6927 13.7813 14.3125 13.7813 13.875V9.25H11.3438L10.6563 13.625C10.5729 14.125 10.6823 14.5625 10.9844 14.9375C11.2865 15.3125 11.6771 15.5 12.1563 15.5ZM6.59375 15.5C6.96875 15.5 7.29688 15.3646 7.57813 15.0938C7.85938 14.8229 8.03125 14.4792 8.09375 14.0625L8.78125 9.25H6.34375L5.09375 13.4375C4.96875 13.8542 5.03646 14.3021 5.29688 14.7812C5.5573 15.2604 5.98959 15.5 6.59375 15.5ZM23.4688 15.5C24.0729 15.5 24.5104 15.2604 24.7813 14.7812C25.0521 14.3021 25.1146 13.8542 24.9688 13.4375L23.6563 9.25H21.2813L21.9688 14.0625C22.0313 14.4792 22.2031 14.8229 22.4844 15.0938C22.7656 15.3646 23.0938 15.5 23.4688 15.5ZM6.28125 26.75H23.7813V17.9375C23.6771 17.9792 23.6094 18 23.5781 18C23.5469 18 23.5104 18 23.4688 18C22.9063 18 22.4115 17.9062 21.9844 17.7188C21.5573 17.5312 21.1354 17.2292 20.7188 16.8125C20.3438 17.1875 19.9167 17.4792 19.4375 17.6875C18.9583 17.8958 18.4479 18 17.9063 18C17.3438 18 16.8177 17.8958 16.3281 17.6875C15.8385 17.4792 15.4063 17.1875 15.0313 16.8125C14.6771 17.1875 14.2656 17.4792 13.7969 17.6875C13.3281 17.8958 12.8229 18 12.2813 18C11.6771 18 11.1302 17.8958 10.6406 17.6875C10.151 17.4792 9.71875 17.1875 9.34375 16.8125C8.90625 17.25 8.47396 17.5573 8.04688 17.7344C7.61979 17.9115 7.13542 18 6.59375 18C6.55209 18 6.50521 18 6.45313 18C6.40105 18 6.34375 17.9792 6.28125 17.9375V26.75ZM23.7813 26.75H6.28125C6.34375 26.75 6.40105 26.75 6.45313 26.75C6.50521 26.75 6.55209 26.75 6.59375 26.75C7.13542 26.75 7.61979 26.75 8.04688 26.75C8.47396 26.75 8.90625 26.75 9.34375 26.75C9.53125 26.75 9.73438 26.75 9.95313 26.75C10.1719 26.75 10.4063 26.75 10.6563 26.75C10.9063 26.75 11.1667 26.75 11.4375 26.75C11.7083 26.75 11.9896 26.75 12.2813 26.75C12.5521 26.75 12.8125 26.75 13.0625 26.75C13.3125 26.75 13.5573 26.75 13.7969 26.75C14.0365 26.75 14.2604 26.75 14.4688 26.75C14.6771 26.75 14.8646 26.75 15.0313 26.75C15.4063 26.75 15.8385 26.75 16.3281 26.75C16.8177 26.75 17.3438 26.75 17.9063 26.75C18.1771 26.75 18.4375 26.75 18.6875 26.75C18.9375 26.75 19.1823 26.75 19.4219 26.75C19.6615 26.75 19.8906 26.75 20.1094 26.75C20.3281 26.75 20.5313 26.75 20.7188 26.75C21.1354 26.75 21.5573 26.75 21.9844 26.75C22.4115 26.75 22.9063 26.75 23.4688 26.75C23.5104 26.75 23.5469 26.75 23.5781 26.75C23.6094 26.75 23.6771 26.75 23.7813 26.75Z" fill="#607AFB"/>
</svg>
