<svg width="30" height="36" viewBox="0 0 30 36" fill="none" xmlns="http://www.w3.org/2000/svg">
<path d="M10 25.5H11.875V23H14.375V21.125H11.875V18.625H10V21.125H7.5V23H10V25.5ZM16.25 24.5625H22.5V22.6875H16.25V24.5625ZM16.25 21.4375H22.5V19.5625H16.25V21.4375ZM17.625 16.6875L19.375 14.9375L21.125 16.6875L22.4375 15.375L20.6875 13.5625L22.4375 11.8125L21.125 10.5L19.375 12.25L17.625 10.5L16.3125 11.8125L18.0625 13.5625L16.3125 15.375L17.625 16.6875ZM7.8125 14.5H14.0625V12.625H7.8125V14.5ZM6.25 29.25C5.5625 29.25 4.97396 29.0052 4.48438 28.5156C3.99479 28.026 3.75 27.4375 3.75 26.75V9.25C3.75 8.5625 3.99479 7.97396 4.48438 7.48438C4.97396 6.99479 5.5625 6.75 6.25 6.75H23.75C24.4375 6.75 25.026 6.99479 25.5156 7.48438C26.0052 7.97396 26.25 8.5625 26.25 9.25V26.75C26.25 27.4375 26.0052 28.026 25.5156 28.5156C25.026 29.0052 24.4375 29.25 23.75 29.25H6.25ZM6.25 26.75H23.75V9.25H6.25V26.75Z" fill="#607AFB"/>
</svg>
